<?xml version="1.0" encoding="utf-8"?>
<!-- Generator: Adobe Illustrator 17.0.0, SVG Export Plug-In . SVG Version: 6.00 Build 0)  -->
<!DOCTYPE svg PUBLIC "-//W3C//DTD SVG 1.1//EN" "http://www.w3.org/Graphics/SVG/1.1/DTD/svg11.dtd">
<svg version="1.1" id="Layer_1" xmlns="http://www.w3.org/2000/svg" xmlns:xlink="http://www.w3.org/1999/xlink" x="0px" y="0px"
	 width="400px" height="400px" viewBox="0 0 400 400" enable-background="new 0 0 400 400" xml:space="preserve">
<g>
	<g>
		<g>
			<path fill="#00EE8A" d="M81.785,326.606v-36.154h-6.648v-9.976h6.648v-3.667c0-5.258,1.539-9.337,4.616-12.236
				c3.077-2.899,7.396-4.349,12.958-4.349c2.033,0,4.262,0.298,6.691,0.895l0.042,10.573c-0.875-0.256-2.047-0.384-3.515-0.384
				c-4.319,0-6.479,1.876-6.479,5.628v3.539h8.935v9.976h-8.935v36.154H81.785V326.606z"/>
			<path fill="#00EE8A" d="M125.105,326.606h-14.313v-46.13h14.313C125.105,280.476,125.105,326.606,125.105,326.606z"/>
			<path fill="#00EE8A" d="M150.512,269.008v11.469h7.538v9.976h-7.538v21.104c0,1.734,0.311,2.942,0.932,3.624
				c0.62,0.682,1.849,1.023,3.684,1.023c1.412,0,2.597-0.085,3.557-0.256v10.275c-2.569,0.824-5.251,1.236-8.046,1.236
				c-4.912,0-8.54-1.165-10.883-3.496c-2.344-2.33-3.515-5.869-3.515-10.616v-22.895h-5.844v-9.976h5.844v-11.469h14.271V269.008z"
				/>
			<path fill="#00EE8A" d="M117.948,267.695c1.914,0,3.471,1.557,3.471,3.471s-1.557,3.471-3.471,3.471s-3.471-1.557-3.471-3.471
				S116.034,267.695,117.948,267.695 M117.948,265.463c-3.15,0-5.703,2.553-5.703,5.703s2.553,5.703,5.703,5.703
				s5.703-2.553,5.703-5.703C123.651,268.016,121.098,265.463,117.948,265.463L117.948,265.463z"/>
		</g>
		<g>
			<path fill="#00EE8A" d="M167.574,301.324v25.282h-5.209v-62.075h21.004c6.408,0,11.469,1.648,15.181,4.946s5.568,7.83,5.568,13.6
				c0,5.827-1.786,10.325-5.357,13.494c-3.572,3.17-8.744,4.754-15.52,4.754h-15.667V301.324z M167.574,296.89h15.795
				c5.053,0,8.907-1.21,11.56-3.629s3.981-5.793,3.981-10.12c0-4.298-1.32-7.721-3.959-10.269c-2.64-2.547-6.388-3.849-11.243-3.907
				h-16.134V296.89z"/>
			<path fill="#00EE8A" d="M238.698,326.606c-0.508-1.45-0.833-3.595-0.974-6.438c-1.779,2.331-4.044,4.129-6.797,5.393
				s-5.668,1.897-8.744,1.897c-4.404,0-7.968-1.236-10.692-3.709c-2.725-2.473-4.086-5.599-4.086-9.38
				c0-4.491,1.856-8.043,5.568-10.659c3.712-2.615,8.886-3.922,15.52-3.922h9.189v-5.244c0-3.297-1.01-5.89-3.028-7.781
				c-2.018-1.89-4.962-2.835-8.829-2.835c-3.529,0-6.451,0.91-8.766,2.729s-3.472,4.008-3.472,6.566l-5.082-0.043
				c0-3.667,1.694-6.843,5.082-9.529s7.552-4.029,12.492-4.029c5.109,0,9.14,1.286,12.09,3.858c2.95,2.573,4.467,6.161,4.552,10.765
				v21.829c0,4.462,0.466,7.802,1.397,10.019v0.512L238.698,326.606L238.698,326.606z M222.776,322.94
				c3.388,0,6.415-0.824,9.083-2.473c2.668-1.648,4.609-3.851,5.823-6.608v-10.147h-9.062c-5.054,0.057-9.006,0.988-11.857,2.793
				c-2.852,1.805-4.277,4.285-4.277,7.44c0,2.586,0.953,4.732,2.858,6.438C217.249,322.087,219.727,322.94,222.776,322.94z"/>
			<path fill="#00EE8A" d="M259.769,268.667v11.81h9.485v4.178h-9.485v30.773c0,2.562,0.459,4.468,1.376,5.72
				s2.449,1.878,4.595,1.878c0.847,0,2.216-0.142,4.108-0.426l0.212,4.142c-1.327,0.478-3.134,0.718-5.42,0.718
				c-3.472,0-5.999-1.016-7.58-3.048s-2.371-5.024-2.371-8.974v-30.782h-8.427v-4.178h8.427v-11.81L259.769,268.667L259.769,268.667
				z"/>
			<path fill="#00EE8A" d="M281.095,326.606h-5.082V261.12h5.082V326.606z"/>
			<path fill="#00EE8A" d="M319.443,326.606c-0.508-1.45-0.833-3.595-0.974-6.438c-1.779,2.331-4.044,4.129-6.797,5.393
				c-2.752,1.264-5.667,1.897-8.744,1.897c-4.404,0-7.968-1.236-10.692-3.709c-2.725-2.473-4.086-5.599-4.086-9.38
				c0-4.491,1.856-8.043,5.568-10.659c3.712-2.615,8.886-3.922,15.52-3.922h9.189v-5.244c0-3.297-1.009-5.89-3.028-7.781
				c-2.018-1.89-4.962-2.835-8.829-2.835c-3.529,0-6.451,0.91-8.766,2.729s-3.472,4.008-3.472,6.566l-5.082-0.043
				c0-3.667,1.694-6.843,5.082-9.529s7.552-4.029,12.492-4.029c5.11,0,9.14,1.286,12.09,3.858c2.95,2.573,4.467,6.161,4.552,10.765
				v21.829c0,4.462,0.466,7.802,1.397,10.019v0.512L319.443,326.606L319.443,326.606z M303.521,322.94
				c3.388,0,6.415-0.824,9.083-2.473c2.668-1.648,4.609-3.851,5.823-6.608v-10.147h-9.062c-5.053,0.057-9.006,0.988-11.857,2.793
				c-2.851,1.805-4.277,4.285-4.277,7.44c0,2.586,0.953,4.732,2.858,6.438C297.995,322.087,300.472,322.94,303.521,322.94z"/>
		</g>
	</g>
	<path fill="#00EE8A" d="M377.188,22.812v354.377H22.812V22.812H377.188 M400,0H0v400h400V0L400,0z"/>
</g>
</svg>
